<?xml version="1.0" encoding="UTF-8" standalone="no"?>
<!DOCTYPE svg PUBLIC "-//W3C//DTD SVG 1.1//EN" "http://www.w3.org/Graphics/SVG/1.1/DTD/svg11.dtd">
<svg version="1.1" xmlns="http://www.w3.org/2000/svg" xmlns:xlink="http://www.w3.org/1999/xlink" preserveAspectRatio="xMidYMid meet" viewBox="0 0 640 241" width="640" height="241"><defs><path d="M133.81 1.2C67.01 1.2 12.86 54.61 12.86 120.5C12.86 186.39 67.01 239.8 133.81 239.8C200.6 239.8 254.75 186.39 254.75 120.5C254.75 54.61 200.6 1.2 133.81 1.2Z" id="f2iBtxaq8f"></path><path d="M286.31 204.55C287.99 204.55 301.42 204.55 303.1 204.55C303.88 204.55 304.35 204.17 304.48 203.4C306.01 196.32 318.25 139.62 319.78 132.54C320 131.63 319.65 131.16 318.72 131.16C317.1 131.16 304.18 131.16 302.56 131.16C301.71 131.16 301.24 131.56 301.17 132.33C300.61 136.51 296.07 169.97 295.5 174.16C295.5 174.36 295.42 174.49 295.24 174.52C295.06 174.55 294.93 174.43 294.87 174.16C294.26 169.97 289.38 136.51 288.77 132.33C288.7 131.56 288.23 131.16 287.38 131.16C285.73 131.16 272.46 131.16 270.8 131.16C270.02 131.16 269.63 131.48 269.63 132.11C269.64 132.14 269.68 132.28 269.74 132.54L284.92 203.4C285.32 204.17 285.79 204.55 286.31 204.55ZM348.22 204.55C349.74 204.55 361.9 204.55 363.42 204.55C363.76 204.55 364.07 204.43 364.31 204.19C364.57 203.95 364.69 203.64 364.69 203.29C364.69 196.2 364.69 139.51 364.69 132.43C364.69 132.07 364.57 131.79 364.31 131.53C364.07 131.29 363.76 131.16 363.42 131.16C361.9 131.16 349.74 131.16 348.22 131.16C347.86 131.16 347.57 131.29 347.31 131.53C347.07 131.79 346.93 132.07 346.93 132.43C346.93 139.51 346.93 196.2 346.93 203.29C346.93 203.64 347.07 203.95 347.31 204.19C347.57 204.43 347.86 204.55 348.22 204.55ZM434.53 144.8C434.53 143.56 434.53 133.66 434.53 132.43C434.53 132.07 434.4 131.79 434.15 131.53C433.89 131.29 433.6 131.16 433.24 131.16C429.39 131.16 398.6 131.16 394.75 131.16C394.39 131.16 394.08 131.29 393.84 131.53C393.58 131.79 393.46 132.07 393.46 132.43C393.46 139.51 393.46 196.2 393.46 203.29C393.46 203.64 393.58 203.95 393.84 204.19C394.08 204.43 394.39 204.55 394.75 204.55C398.6 204.55 429.39 204.55 433.24 204.55C433.6 204.55 433.89 204.43 434.15 204.19C434.4 203.95 434.53 203.64 434.53 203.29C434.53 202.05 434.53 192.16 434.53 190.92C434.53 190.57 434.4 190.28 434.15 190.04C433.89 189.79 433.6 189.67 433.24 189.67C431.09 189.67 413.89 189.67 411.74 189.67C411.39 189.67 411.21 189.5 411.21 189.15C411.21 187.82 411.21 177.16 411.21 175.83C411.21 175.48 411.39 175.31 411.74 175.31C412.91 175.31 422.33 175.31 423.51 175.31C423.86 175.31 424.16 175.18 424.42 174.94C424.66 174.7 424.79 174.4 424.79 174.04C424.79 172.8 424.79 162.82 424.79 161.58C424.79 161.23 424.66 160.92 424.42 160.68C424.16 160.44 423.86 160.31 423.51 160.31C422.33 160.31 412.91 160.31 411.74 160.31C411.39 160.31 411.21 160.14 411.21 159.79C411.21 158.47 411.21 147.91 411.21 146.59C411.21 146.23 411.39 146.06 411.74 146.06C413.89 146.06 431.09 146.06 433.24 146.06C433.6 146.06 433.89 145.93 434.15 145.69C434.4 145.45 434.53 145.15 434.53 144.8ZM476.11 204.55C477.48 204.55 488.44 204.55 489.81 204.55C490.59 204.55 491.01 204.17 491.08 203.4C491.55 199.82 495.32 171.14 495.79 167.55C495.79 167.33 495.89 167.24 496.05 167.24C496.23 167.24 496.36 167.33 496.43 167.55C496.96 171.14 501.24 199.82 501.77 203.4C501.85 204.17 502.31 204.55 503.17 204.55C504.54 204.55 515.48 204.55 516.85 204.55C517.72 204.55 518.17 204.17 518.25 203.4C519.63 196.32 530.67 139.62 532.05 132.54C532.19 131.63 531.78 131.16 530.87 131.16C529.33 131.16 517.01 131.16 515.47 131.16C514.68 131.16 514.26 131.56 514.18 132.33C513.74 135.78 510.23 163.37 509.79 166.82C509.79 167.03 509.73 167.12 509.58 167.12C509.43 167.12 509.34 167.03 509.27 166.82C508.74 163.37 504.46 135.78 503.92 132.33C503.84 131.56 503.39 131.16 502.52 131.16C501.27 131.16 491.27 131.16 490.02 131.16C489.15 131.16 488.7 131.56 488.63 132.33C488.15 135.78 484.29 163.37 483.81 166.82C483.74 167.03 483.64 167.12 483.5 167.12C483.35 167.12 483.24 167.03 483.17 166.82C482.69 163.37 478.84 135.78 478.36 132.33C478.3 131.56 477.82 131.16 476.98 131.16C475.4 131.16 462.82 131.16 461.25 131.16C460.46 131.16 460.07 131.48 460.07 132.11C460.08 132.14 460.12 132.28 460.19 132.54L474.73 203.4C475.13 204.17 475.59 204.55 476.11 204.55Z" id="b39862a4Aa"></path><path d="M74.69 57.2C71.65 57.2 69.18 59.65 69.18 62.67C69.18 65.69 71.65 68.14 74.69 68.14C74.85 68.14 75.64 68.14 77.05 68.14C77.05 114.07 77.05 139.59 77.05 144.7C77.05 149.88 81.28 154.07 86.49 154.07C88.81 154.07 107.34 154.07 109.66 154.07C109.3 154.8 109.11 155.6 109.11 156.42C109.11 159.44 111.57 161.88 114.62 161.88C115.23 161.88 118.29 161.88 123.79 161.88C112.05 174.37 105.53 181.31 104.23 182.7C103.6 183.29 103.56 184.27 104.16 184.9C104.75 185.53 105.75 185.57 106.38 184.98C106.43 184.93 106.48 184.88 106.53 184.82C107.97 183.29 115.15 175.65 128.09 161.88L139.32 161.88C152.26 175.65 159.45 183.29 160.88 184.82C161.5 185.43 162.49 185.43 163.1 184.82C163.71 184.21 163.71 183.23 163.1 182.62C161.8 181.24 155.31 174.32 143.62 161.88C149.13 161.88 152.18 161.88 152.8 161.88C155.84 161.88 158.3 159.44 158.3 156.42C158.3 156.42 158.3 156.42 158.3 156.42C158.3 155.6 158.11 154.8 157.75 154.07C160.07 154.07 178.6 154.07 180.92 154.07C186.13 154.07 190.36 149.88 190.36 144.7C190.36 139.59 190.36 114.07 190.36 68.14C191.78 68.14 192.56 68.14 192.72 68.14C195.76 68.14 198.23 65.69 198.23 62.67C198.23 59.65 195.76 57.2 192.72 57.2C169.12 57.2 86.49 57.2 74.69 57.2ZM152.8 158.76C148.98 158.76 118.43 158.76 114.62 158.76C113.31 158.76 112.26 157.71 112.26 156.42C112.26 155.12 113.31 154.07 114.62 154.07C118.43 154.07 148.98 154.07 152.8 154.07C154.1 154.07 155.16 155.12 155.16 156.42C155.16 157.71 154.1 158.76 152.8 158.76ZM180.92 150.95C171.48 150.95 95.94 150.95 86.49 150.95C83.02 150.95 80.2 148.15 80.2 144.7C80.2 139.59 80.2 114.07 80.2 68.14L187.21 68.14L187.21 144.7C185.33 148.86 183.24 150.95 180.92 150.95ZM74.69 65.01C73.39 65.01 72.33 63.96 72.33 62.67C72.33 61.38 73.39 60.33 74.69 60.33C86.49 60.33 180.92 60.33 192.72 60.33C194.03 60.33 195.08 61.38 195.08 62.67C195.08 63.96 194.03 65.01 192.72 65.01C169.12 65.01 86.49 65.01 74.69 65.01Z" id="c7hnlRT9Tt"></path><path d="M98.19 135.59C97.32 135.59 96.61 136.29 96.61 137.15C96.61 138.04 96.61 145.15 96.61 146.04C96.61 146.9 97.32 147.6 98.19 147.6C98.91 147.6 104.66 147.6 105.38 147.6C106.25 147.6 106.95 146.9 106.95 146.04C106.95 145.15 106.95 138.04 106.95 137.15C106.95 136.29 106.25 135.59 105.38 135.59C103.94 135.59 98.91 135.59 98.19 135.59ZM99.76 144.48L99.76 138.71L103.81 138.71L103.81 144.48L99.76 144.48ZM114.14 127.21C113.28 127.21 112.57 127.91 112.57 128.78C112.57 130.5 112.57 144.24 112.57 145.96C112.57 146.83 113.28 147.53 114.14 147.53C114.87 147.53 120.66 147.53 121.38 147.53C122.25 147.53 122.96 146.83 122.96 145.96C122.96 144.24 122.96 130.5 122.96 128.78C122.96 127.91 122.25 127.21 121.38 127.21C119.94 127.21 114.87 127.21 114.14 127.21ZM115.72 144.4L115.72 130.34L119.81 130.34L119.81 144.4L115.72 144.4ZM146.03 107.06C145.16 107.06 144.45 107.76 144.45 108.62C144.45 112.37 144.45 142.37 144.45 146.12C144.45 146.98 145.16 147.68 146.03 147.68C146.75 147.68 152.56 147.68 153.28 147.68C154.15 147.68 154.86 146.98 154.86 146.12C154.86 142.37 154.86 112.37 154.86 108.62C154.86 107.76 154.15 107.06 153.28 107.06C151.83 107.06 146.75 107.06 146.03 107.06ZM147.6 144.56L147.6 110.18L151.71 110.18L151.71 144.56L147.6 144.56ZM162.03 96.98C161.16 96.98 160.46 97.68 160.46 98.54C160.46 103.29 160.46 141.29 160.46 146.04C160.46 146.9 161.16 147.6 162.03 147.6C162.76 147.6 168.56 147.6 169.29 147.6C170.16 147.6 170.86 146.9 170.86 146.04C170.86 141.29 170.86 103.29 170.86 98.54C170.86 97.68 170.16 96.98 169.29 96.98C169.27 96.98 169.25 96.98 169.23 96.98C169.23 96.98 162.75 96.98 162.03 96.98ZM163.61 144.48L163.61 100.11L167.71 100.11L167.65 144.48L163.61 144.48ZM113.77 114.21C112.99 115.04 112.56 116.13 112.57 117.26C112.58 117.72 112.65 118.17 112.79 118.61C111.92 119.15 104.99 123.54 104.12 124.09C103.31 123.3 102.23 122.85 101.1 122.82C98.67 122.78 96.66 124.71 96.62 127.12C96.61 127.64 96.69 128.16 96.86 128.65C96.19 129.19 96.08 130.17 96.62 130.85C96.92 131.21 97.36 131.43 97.82 131.43C98.12 131.43 98.41 131.35 98.66 131.2C98.68 131.19 98.81 131.09 98.83 131.07C100.93 132.33 103.66 131.67 104.93 129.59C105.35 128.88 105.58 128.08 105.57 127.26C105.58 127.12 105.58 126.98 105.57 126.84C106.49 126.26 113.9 121.64 114.82 121.06C115.51 121.47 116.3 121.69 117.1 121.7C119.57 121.7 121.57 119.71 121.57 117.26C121.57 117.26 121.57 117.26 121.57 117.26C121.58 117.12 121.58 116.97 121.57 116.82C122.5 116.24 129.89 111.56 130.81 110.98C132.94 112.19 135.65 111.46 136.87 109.34C137.24 108.69 137.44 107.95 137.45 107.2C137.45 107.16 137.45 106.98 137.45 106.65C142.96 103.23 146.01 101.33 146.63 100.95C147.32 101.37 148.11 101.6 148.92 101.61C151.4 101.61 153.4 99.62 153.41 97.17C153.42 97.02 153.42 96.87 153.41 96.72C154.33 96.13 161.68 91.46 162.6 90.87C163.3 91.31 164.1 91.54 164.93 91.54C167.4 91.54 169.4 89.54 169.4 87.09C169.39 86.77 169.36 86.45 169.29 86.14C169.41 86.06 170.36 85.43 170.48 85.36C171.26 84.96 171.56 84.02 171.16 83.25C170.76 82.48 169.81 82.18 169.04 82.58C168.96 82.62 168.88 82.67 168.8 82.73C168.67 82.81 167.67 83.43 167.54 83.51C166.79 82.96 165.87 82.66 164.93 82.65C162.5 82.61 160.49 84.54 160.45 86.95C160.44 87.44 160.51 87.92 160.66 88.39C159.8 88.94 152.85 93.35 151.98 93.9C150.17 92.25 147.35 92.36 145.68 94.15C144.92 94.97 144.5 96.05 144.5 97.17C144.51 97.61 144.59 98.06 144.72 98.48C143.85 99.03 136.85 103.39 135.97 103.93C135.17 103.21 134.12 102.81 133.03 102.81C130.56 102.78 128.54 104.75 128.51 107.2C128.51 107.2 128.51 107.2 128.51 107.2C128.52 107.65 128.6 108.1 128.73 108.53C128.16 108.89 125.26 110.71 120.06 114C116.98 112.95 114.89 113.02 113.77 114.21ZM99.82 127.34C99.81 126.61 100.41 126 101.15 126C101.88 125.99 102.49 126.57 102.5 127.31C102.5 127.31 102.5 127.32 102.5 127.32C102.5 128.06 101.9 128.65 101.16 128.65C101.14 128.65 101.12 128.65 101.1 128.65C101.1 128.65 101.13 128.65 101.18 128.65C100.28 128.27 99.83 127.83 99.82 127.34ZM115.93 117.11C116 116.49 116.49 116 117.12 115.93C117.85 116.01 118.38 116.67 118.3 117.4C118.24 118.02 117.74 118.51 117.12 118.57C116.38 118.49 115.85 117.84 115.93 117.11ZM166.3 87.09C166.3 87.82 165.7 88.42 164.96 88.42C164.22 88.42 163.62 87.82 163.62 87.09C163.62 87.09 163.62 87.08 163.62 87.08C163.6 86.36 164.16 85.76 164.88 85.72C164.89 85.72 164.91 85.73 164.96 85.76C165.85 86.16 166.3 86.6 166.3 87.09ZM150.25 97.11C150.25 97.83 149.65 98.42 148.92 98.42C148.92 98.42 148.92 98.42 148.92 98.42C148.19 98.42 147.6 97.83 147.6 97.11C147.6 96.38 148.19 95.79 148.92 95.79C149.65 95.79 150.25 96.38 150.25 97.11ZM134.3 107.18C134.3 107.91 133.71 108.5 132.98 108.5C132.25 108.5 131.66 107.91 131.66 107.18C131.66 106.46 132.25 105.87 132.98 105.87C132.98 105.87 132.98 105.87 132.98 105.87C133.71 105.87 134.3 106.46 134.3 107.18ZM130.09 117.14C129.22 117.14 128.51 117.84 128.51 118.7C128.51 121.43 128.51 143.31 128.51 146.04C128.51 146.9 129.22 147.6 130.09 147.6C130.81 147.6 136.6 147.6 137.33 147.6C138.19 147.6 138.9 146.9 138.9 146.04C138.9 143.31 138.9 121.43 138.9 118.7C138.9 117.84 138.19 117.14 137.33 117.14C135.88 117.14 130.81 117.14 130.09 117.14ZM131.66 144.48L131.66 120.26L135.75 120.26L135.75 144.48L131.66 144.48ZM100.14 98.95C100.14 99.54 100.14 99.87 100.14 99.93C100.14 100.8 100.84 101.5 101.71 101.5C102.58 101.5 103.29 100.8 103.29 99.93C103.29 99.87 103.29 99.54 103.29 98.95L103.85 98.95C103.85 99.54 103.85 99.87 103.85 99.93C103.85 100.8 104.56 101.5 105.43 101.5C106.3 101.5 107 100.8 107 99.93C107 99.82 107 98.95 107 98.84C110.23 98.23 112.35 95.14 111.73 91.94C111.52 90.84 111.01 89.83 110.24 89.01C112.22 87.23 112.37 84.18 110.57 82.21C109.67 81.23 108.4 80.66 107.06 80.64C107.06 80.52 107.06 79.56 107.06 79.43C107.06 78.57 106.36 77.87 105.49 77.87C104.62 77.87 103.92 78.57 103.92 79.43C103.92 79.52 103.92 79.92 103.92 80.64L103.35 80.64C103.35 79.92 103.35 79.52 103.35 79.43C103.35 78.57 102.64 77.87 101.78 77.87C100.91 77.87 100.2 78.57 100.2 79.43C100.2 79.52 100.2 79.92 100.2 80.64C99.53 80.64 99.16 80.64 99.08 80.64C98.21 80.64 97.51 81.34 97.51 82.2C97.51 83.72 97.51 95.87 97.51 97.39C97.51 98.25 98.21 98.95 99.08 98.95C99.22 98.95 99.58 98.95 100.14 98.95ZM100.66 95.82L100.66 90.26C103.79 90.26 105.53 90.26 105.88 90.26C107.43 90.26 108.68 91.51 108.68 93.04C108.68 94.58 107.43 95.82 105.88 95.82C105.88 95.82 105.88 95.82 105.88 95.82C105.88 95.82 104.14 95.82 100.66 95.82ZM107 87.14C106.58 87.14 104.46 87.14 100.66 87.14L100.66 83.76C104.43 83.76 106.53 83.76 106.95 83.76C107.89 83.71 108.69 84.42 108.74 85.35C108.75 85.39 108.75 85.42 108.75 85.45C108.74 85.45 108.72 85.45 108.68 85.45C108.18 86.57 107.62 87.13 107 87.14Z" id="gaph1Odscm"></path><path d="M287.11 105.92C292.54 105.92 296.9 104.26 300.2 100.92C303.52 97.6 305.18 93.12 305.18 87.53C305.18 87.36 305.18 85.99 305.18 85.82C305.18 85.11 304.83 84.75 304.12 84.75C303.57 84.72 299.18 84.46 298.63 84.43C297.92 84.43 297.56 84.79 297.56 85.5C297.56 85.76 297.56 87.89 297.56 88.16C297.56 91.5 296.61 94.19 294.71 96.25C292.81 98.29 290.28 99.33 287.11 99.33C284 99.33 281.49 98.29 279.56 96.25C277.62 94.19 276.64 91.5 276.64 88.16C276.64 84.09 276.64 51.58 276.64 47.52C276.64 44.19 277.62 41.5 279.56 39.44C281.49 37.38 284 36.36 287.11 36.36C290.28 36.36 292.81 37.38 294.71 39.44C296.61 41.5 297.56 44.19 297.56 47.52C297.56 47.78 297.56 49.91 297.56 50.18C297.56 50.89 297.92 51.25 298.63 51.25C299.18 51.21 303.57 50.95 304.12 50.92C304.83 50.92 305.18 50.56 305.18 49.87C305.18 49.69 305.18 48.23 305.18 48.05C305.18 42.46 303.54 38 300.25 34.7C296.98 31.41 292.6 29.76 287.11 29.76C281.68 29.76 277.33 31.43 274.06 34.75C270.78 38.09 269.15 42.52 269.15 48.05C269.15 52 269.15 83.58 269.15 87.53C269.15 93.12 270.78 97.6 274.06 100.92C277.33 104.26 281.68 105.92 287.11 105.92ZM368.77 105.07C369.32 105.07 373.71 105.07 374.26 105.07C374.91 105.07 375.21 104.83 375.21 104.33C375.2 104.3 375.17 104.16 375.11 103.91C368.2 83.8 364.37 72.63 363.6 70.4C363.52 70.11 363.63 69.93 363.9 69.86C367.29 68.58 369.98 66.28 371.94 62.94C373.91 59.61 374.91 55.61 374.91 50.92C374.91 44.82 373.31 39.89 370.14 36.15C366.98 32.38 362.83 30.5 357.67 30.5C355.93 30.5 341.99 30.5 340.24 30.5C339.54 30.5 339.2 30.86 339.2 31.56C339.2 38.8 339.2 96.76 339.2 104C339.2 104.72 339.54 105.07 340.24 105.07C340.78 105.07 345.1 105.07 345.64 105.07C346.33 105.07 346.69 104.72 346.69 104C346.69 100.73 346.69 74.52 346.69 71.24C346.69 70.97 346.83 70.82 347.12 70.82C348.03 70.82 355.3 70.82 356.21 70.82C356.42 70.82 356.56 70.92 356.62 71.15C357.35 73.35 360.98 84.38 367.51 104.23C367.93 104.79 368.35 105.07 368.77 105.07ZM347.12 37.1C348.07 37.1 355.67 37.1 356.62 37.1C359.86 37.1 362.47 38.35 364.44 40.87C366.42 43.4 367.4 46.77 367.4 51.04C367.4 55.14 366.42 58.46 364.44 60.98C362.47 63.49 359.86 64.76 356.62 64.76C355.67 64.76 348.07 64.76 347.12 64.76C346.83 64.76 346.69 64.61 346.69 64.33C346.69 62.55 346.69 53.61 346.69 37.53C346.78 37.24 346.93 37.1 347.12 37.1ZM418.01 104.96C418.54 104.96 422.85 104.96 423.38 104.96C424.09 104.96 424.45 104.62 424.45 103.91C424.45 100.73 424.45 75.28 424.45 72.1C424.45 71.81 424.48 71.63 424.56 71.57C426.02 67.6 437.68 35.85 439.14 31.88C439.27 31.52 439.25 31.23 439.07 30.97C438.91 30.73 438.64 30.6 438.28 30.6C437.71 30.6 433.15 30.6 432.58 30.6C431.95 30.6 431.52 30.89 431.31 31.46C430.27 34.58 422 59.51 420.97 62.63C420.89 62.78 420.79 62.84 420.65 62.84C420.5 62.84 420.4 62.78 420.32 62.63C419.29 59.51 411 34.58 409.97 31.46C409.76 30.89 409.34 30.6 408.71 30.6C408.14 30.6 403.57 30.6 402.99 30.6C402.37 30.6 402.04 30.89 402.04 31.46C402.05 31.49 402.09 31.63 402.16 31.88C410.97 55.69 415.87 68.92 416.85 71.57C416.91 71.63 416.94 71.81 416.94 72.1C416.94 74.22 416.94 84.82 416.94 103.91C417.18 104.61 417.53 104.96 418.01 104.96ZM487.94 30.5C486.2 30.5 472.25 30.5 470.51 30.5C469.8 30.5 469.45 30.86 469.45 31.56C469.45 38.8 469.45 96.76 469.45 104C469.45 104.72 469.8 105.07 470.51 105.07C471.05 105.07 475.35 105.07 475.89 105.07C476.6 105.07 476.95 104.72 476.95 104C476.95 100.79 476.95 75.09 476.95 71.88C476.95 71.6 477.1 71.45 477.37 71.45C478.46 71.45 487.17 71.45 488.26 71.45C493.33 71.45 497.41 69.59 500.52 65.87C503.61 62.14 505.16 57.23 505.16 51.13C505.16 44.97 503.58 39.99 500.4 36.2C497.23 32.4 493.08 30.5 487.94 30.5ZM486.99 65.29C486.03 65.29 478.33 65.29 477.37 65.29C477.1 65.29 476.95 65.14 476.95 64.87C476.95 62.13 476.95 40.26 476.95 37.53C476.95 37.23 477.1 37.1 477.37 37.1C478.33 37.1 486.03 37.1 486.99 37.1C490.16 37.1 492.74 38.38 494.7 40.98C496.67 43.57 497.67 47 497.67 51.25C497.67 55.5 496.67 58.9 494.7 61.46C492.74 64.01 490.16 65.29 486.99 65.29ZM569.82 30.6C566.28 30.6 537.96 30.6 534.42 30.6C533.73 30.6 533.37 30.96 533.37 31.67C533.37 32.12 533.37 35.7 533.37 36.15C533.37 36.84 533.73 37.2 534.42 37.2C535.73 37.2 546.22 37.2 547.53 37.2C547.8 37.2 547.95 37.35 547.95 37.62C547.95 44.26 547.95 97.37 547.95 104C547.95 104.72 548.3 105.07 549 105.07C549.54 105.07 553.85 105.07 554.39 105.07C555.1 105.07 555.45 104.72 555.45 104C555.45 97.37 555.45 44.26 555.45 37.62C555.45 37.35 555.58 37.2 555.87 37.2C557.27 37.2 568.43 37.2 569.82 37.2C570.51 37.2 570.87 36.84 570.87 36.15C570.87 35.85 570.87 34.36 570.87 31.67C570.63 30.96 570.28 30.6 569.82 30.6ZM616.3 105.92C621.8 105.92 626.23 104.2 629.61 100.76C632.99 97.32 634.68 92.85 634.68 87.32C634.68 83.42 634.68 52.27 634.68 48.38C634.68 42.76 632.99 38.27 629.61 34.87C626.23 31.46 621.8 29.76 616.3 29.76C610.88 29.76 606.5 31.46 603.15 34.87C599.8 38.27 598.14 42.76 598.14 48.38C598.14 52.27 598.14 83.42 598.14 87.32C598.14 92.91 599.8 97.42 603.15 100.82C606.5 104.23 610.88 105.92 616.3 105.92ZM616.3 99.33C613.13 99.33 610.55 98.25 608.59 96.09C606.61 93.92 605.63 91.14 605.63 87.74C605.63 83.77 605.63 52.02 605.63 48.05C605.63 44.58 606.61 41.76 608.59 39.6C610.55 37.43 613.13 36.36 616.3 36.36C619.54 36.36 622.17 37.43 624.16 39.6C626.18 41.76 627.18 44.58 627.18 48.05C627.18 52.02 627.18 83.77 627.18 87.74C627.18 91.14 626.18 93.92 624.16 96.09C622.17 98.25 619.54 99.33 616.3 99.33Z" id="a5qNAJKYKU"></path><path d="M122.74 89.68C122.74 79.41 114.35 71.08 103.99 71.08C93.64 71.08 85.25 79.41 85.25 89.68C85.26 99.96 93.65 108.28 103.99 108.29C114.35 108.29 122.74 99.96 122.74 89.68ZM119.59 89.68C119.59 98.24 112.61 105.17 103.99 105.17C95.38 105.17 88.4 98.24 88.4 89.68C88.42 81.14 95.39 74.22 103.99 74.2C112.61 74.2 119.59 81.13 119.59 89.68Z" id="e2GUmwt4XV"></path></defs><g><g><g><use xlink:href="#f2iBtxaq8f" opacity="1" fill="#0d64b5" fill-opacity="1"></use><g><use xlink:href="#f2iBtxaq8f" opacity="1" fill-opacity="0" stroke="#000000" stroke-width="1" stroke-opacity="0"></use></g></g><g><use xlink:href="#b39862a4Aa" opacity="1" fill="#0d64b5" fill-opacity="1"></use><g><use xlink:href="#b39862a4Aa" opacity="1" fill-opacity="0" stroke="#000000" stroke-width="1" stroke-opacity="0"></use></g></g><g><use xlink:href="#c7hnlRT9Tt" opacity="1" fill="#ffffff" fill-opacity="1"></use><g><use xlink:href="#c7hnlRT9Tt" opacity="1" fill-opacity="0" stroke="#000000" stroke-width="1" stroke-opacity="0"></use></g></g><g><use xlink:href="#gaph1Odscm" opacity="1" fill="#ffffff" fill-opacity="1"></use><g><use xlink:href="#gaph1Odscm" opacity="1" fill-opacity="0" stroke="#000000" stroke-width="1" stroke-opacity="0"></use></g></g><g><use xlink:href="#a5qNAJKYKU" opacity="1" fill="#4fa4f2" fill-opacity="1"></use><g><use xlink:href="#a5qNAJKYKU" opacity="1" fill-opacity="0" stroke="#000000" stroke-width="1" stroke-opacity="0"></use></g></g><g><use xlink:href="#e2GUmwt4XV" opacity="1" fill="#ffffff" fill-opacity="1"></use><g><use xlink:href="#e2GUmwt4XV" opacity="1" fill-opacity="0" stroke="#000000" stroke-width="1" stroke-opacity="0"></use></g></g></g></g></svg>